<svg width="420" height="420" viewBox="0 0 420 420" fill="none" xmlns="http://www.w3.org/2000/svg">
<path d="M0 210C0 94.0202 94.0202 0 210 0C325.98 0 420 94.0202 420 210C420 325.98 325.98 420 210 420C94.0202 420 0 325.98 0 210Z" fill="white"/>
<path fill-rule="evenodd" clip-rule="evenodd" d="M196.357 61.7549C180.061 67.1234 153.256 73.5604 138.546 75.6386C131.496 76.6343 115.027 77.9407 101.948 78.5408C88.8674 79.1408 77.643 80.0488 77.0027 80.5583C76.1074 81.2703 75.8357 90.1028 75.8254 118.929C75.8171 139.525 75.5034 156.813 75.1275 157.348C74.7515 157.883 72.7683 158.822 70.7209 159.436C61.0925 162.322 57.4304 163.294 54.2132 163.82C50.1965 164.476 48.0142 167.305 49.8308 169.5C51.3552 171.341 100.427 171.505 101.61 169.673C102.024 169.032 102.363 153.809 102.363 135.846V103.185L107.481 102.934C135.505 101.558 170.117 95.3117 198.529 86.4998L209.078 83.229L216.677 85.5377C247.343 94.8573 290.581 102.718 311.173 102.718C314.778 102.718 316.86 103.127 317.12 103.885C317.34 104.527 317.316 119.597 317.066 137.375C316.63 168.414 316.682 169.731 318.372 170.503C319.341 170.945 331.225 171.096 344.783 170.84C367.562 170.409 369.458 170.245 369.754 168.695C370.261 166.052 368.326 164.517 363.114 163.428C360.46 162.872 355.567 161.529 352.24 160.441C348.913 159.351 345.668 158.32 345.027 158.148C344.122 157.903 343.864 149.679 343.864 121.005C343.864 100.749 343.49 83.1889 343.032 81.9814C342.206 79.8043 342.009 79.7763 319.319 78.6313C295.098 77.4088 278.1 75.6731 266.621 73.2488C252.651 70.299 234.261 65.3868 223.39 61.6989C217.272 59.6235 211.199 57.9597 209.895 58.0007C208.592 58.0427 202.5 59.7318 196.357 61.7549ZM226.301 104.698C223.675 106.23 221.019 113.467 221.019 119.094C221.019 123.103 220.656 124.31 219.219 125.082C216.579 126.498 216.579 126.497 216.71 120.838C216.817 116.249 216.529 115.366 214.303 113.443C209.805 109.558 195.959 109.08 191.998 112.671C190.284 114.225 190.17 115.07 190.756 121.82C191.111 125.91 192.007 130.428 192.745 131.86C194.468 135.201 193.085 138.179 189.81 138.179C187.526 138.179 183.794 141.072 183.794 142.842C183.794 143.354 182.255 145.48 180.375 147.566C177.534 150.721 176.887 152.213 176.539 156.414C176 162.939 174.93 163.741 170.532 160.92C167.563 159.016 167.042 158.181 167.042 155.335C167.042 152.775 166.3 151.245 163.878 148.817C159.636 144.564 155.407 144.474 150.789 148.541C148.01 150.987 147.499 152.041 147.499 155.331C147.499 157.474 148.126 160.125 148.893 161.223C150.321 163.267 157.351 166.466 159.69 166.137C162.14 165.791 162.988 166.178 167.973 169.907C174.192 174.56 179.722 175.099 182.672 171.338C184.762 168.675 185.655 169.131 185.655 172.862C185.655 174.316 186.444 176.297 187.409 177.265C190.217 180.08 199.527 183.167 206.732 183.672C213.012 184.111 213.502 184.002 215.489 181.711L217.592 179.285L219.742 181.61C221.616 183.639 222.399 183.858 225.875 183.324C233.641 182.131 240.878 178.825 243.178 175.422C244.36 173.672 248.06 170.419 251.401 168.193L257.474 164.147L262.062 166.125C265.932 167.795 267.219 167.951 270.289 167.122C272.298 166.58 274.952 164.921 276.208 163.424C284.385 153.681 274.711 140.564 262.477 144.805C259.014 146.005 256.643 148.967 254.326 154.989C254.178 155.374 252.382 155.968 250.335 156.308L246.612 156.928V148.356C246.612 139.962 246.555 139.743 243.903 137.815C242.413 136.731 240.11 134.935 238.784 133.822L236.375 131.799L238.487 129.156C242.02 124.737 244.285 118.725 244.285 113.767C244.285 109.861 243.845 108.665 241.565 106.379C239.172 103.979 238.194 103.655 233.422 103.679C230.439 103.695 227.235 104.154 226.301 104.698ZM205.966 116.241C206.249 116.525 205.575 116.62 204.468 116.45C203.36 116.28 202.178 115.864 201.839 115.525C201.501 115.185 202.175 115.091 203.337 115.316C204.5 115.541 205.682 115.957 205.966 116.241ZM238.673 118.116C238.673 118.629 238.267 118.419 237.771 117.649C237.275 116.879 236.869 115.829 236.869 115.316C236.869 114.803 237.275 115.013 237.771 115.783C238.267 116.553 238.673 117.602 238.673 118.116ZM210.739 163.026C211.786 165.401 212.644 167.897 212.644 168.572C212.644 170.977 208.699 176.533 207.197 176.243C205.043 175.827 203.208 171.759 203.682 168.455C204.246 164.529 206.765 158.709 207.899 158.709C208.414 158.709 209.691 160.651 210.739 163.026ZM220.855 176.128C220.689 176.984 220.064 177.848 219.464 178.048C218.771 178.279 218.556 177.714 218.874 176.492C219.469 174.211 221.29 173.876 220.855 176.128ZM35.6925 184.751C33.6414 186.413 33.4645 187.33 33.0299 198.509L32.5646 210.486L29.782 210.967C25.8938 211.639 23.8119 215.908 25.7142 219.308C26.5229 220.751 28.1357 221.879 29.8062 222.167L32.5646 222.644L33.0299 234.621C33.4645 245.8 33.6414 246.717 35.6925 248.379C38.946 251.016 43.6327 250.707 45.9919 247.699L47.9211 245.241L50.3743 247.699C53.6967 251.032 58.4429 251.081 60.5815 247.807L62.119 245.455L65.1947 247.807C69.0578 250.762 72.2118 250.791 75.5546 247.904L78.166 245.648L77.8663 216.876C77.5974 191.105 77.3936 187.86 75.9129 185.771C73.4169 182.249 69.3128 182.219 65.3669 185.693L62.1562 188.521L61.1185 186.238C59.1847 181.982 51.5385 181.999 49.6 186.263C48.5511 188.572 46.9895 189.393 46.9895 187.637C46.9895 185.74 43.1841 182.971 40.5784 182.971C39.0996 182.971 36.9005 183.773 35.6925 184.751ZM344.59 183.964C341.661 185.675 341.12 191.311 341.256 218.745C341.379 243.656 341.52 245.813 343.159 247.903C345.59 251.001 350.57 250.985 353.678 247.868C354.934 246.609 355.962 245.077 355.962 244.465C355.962 243.852 356.919 244.775 358.089 246.515C361.377 251.407 366.782 251.379 369.768 246.456L371.418 243.735L373.143 246.947C374.624 249.706 375.348 250.159 378.269 250.159C382.044 250.159 385.423 247.664 386.2 244.301C386.463 243.16 386.782 237.872 386.909 232.549L387.139 222.872L390.396 221.818C393.276 220.887 393.687 220.352 393.946 217.2C394.302 212.865 392.902 210.966 389.352 210.966H386.673V200.279C386.673 194.4 386.208 188.567 385.64 187.317C383.283 182.131 375.838 181.777 372.847 186.708L371.255 189.333L369.72 186.652C366.601 181.204 359.33 182.334 357.178 188.602C356.142 191.618 356.064 191.667 356.014 189.338C355.917 184.652 348.988 181.393 344.59 183.964ZM107.343 191.469C96.0492 192.687 90.4616 200.189 88.3751 216.934C87.786 221.662 87.9694 222.588 90.1564 225.901C91.4974 227.932 93.6053 229.85 94.8412 230.161C96.0771 230.471 103.962 230.584 112.364 230.411C127.416 230.101 127.69 230.058 131.028 227.503C136.034 223.671 138.873 219.475 141.437 212.117C143.631 205.818 143.668 205.341 142.316 200.775C141.22 197.074 140.134 195.504 137.454 193.752C134.404 191.757 132.765 191.462 123.299 191.2C117.411 191.036 110.231 191.158 107.343 191.469ZM152.428 191.556C150.198 192.636 146.38 203.296 144.809 212.832C144.344 215.655 143.077 221.026 141.995 224.767C140.525 229.849 140.272 232.029 140.998 233.387C142.426 236.064 146.036 236.675 148.218 234.61C149.214 233.666 151.517 231.752 153.337 230.354C155.275 228.864 157.119 226.353 157.791 224.288C158.421 222.35 159.399 220.456 159.965 220.079C161.386 219.131 176.53 219.213 178.045 220.176C178.908 220.724 179.085 221.978 178.637 224.371C177.773 228.988 179.244 230.563 184.419 230.563C192.382 230.563 196.356 226.005 194.602 218.885C194.288 217.609 193.771 215.506 193.453 214.212C193.036 212.514 193.585 210.831 195.423 208.172C198.515 203.7 198.115 199.382 194.205 194.993C191.849 192.35 191.086 192.114 182.389 191.335C169.941 190.221 154.956 190.331 152.428 191.556ZM206.665 192.613C205.346 193.936 204.275 195.981 204.285 197.16C204.301 199.415 199.44 220.506 197.196 227.905C196.473 230.292 196.139 232.921 196.454 233.746C197.357 236.103 201.373 236.645 204.641 234.851C211.736 230.953 212.388 229.632 217.8 208.167C221.454 193.678 220.891 191.547 213.179 190.675C209.655 190.277 208.717 190.556 206.665 192.613ZM234.283 192.766C226.966 196.513 223.267 201.4 221.408 209.775C219.3 219.279 219.981 224.603 223.734 227.967L226.633 230.563H242.476C256.322 230.563 258.765 230.334 261.861 228.751C266.003 226.632 271.274 220.946 271.274 218.597C271.274 217.696 272.166 215.296 273.257 213.263C274.572 210.81 275.278 207.726 275.351 204.1C275.455 198.946 275.276 198.476 272.205 195.856C267.4 191.759 265.542 191.296 251.744 190.757C239.474 190.278 239.048 190.327 234.283 192.766ZM284.618 191.816C282.021 192.928 281.555 193.716 280.643 198.521C280.074 201.517 279.144 205.647 278.577 207.7C276.02 216.95 274.778 223.055 274.361 228.426C273.929 233.978 274.007 234.245 276.215 234.8C281.526 236.137 288.083 229.768 291.246 220.201C292.305 216.999 293.599 214.236 294.122 214.061C294.646 213.886 299.179 217.527 304.197 222.153C312.676 229.969 313.597 230.563 317.247 230.563C319.406 230.563 321.844 230.038 322.664 229.396C324.511 227.951 331.766 201.421 331.766 196.11C331.766 192.768 331.426 192.125 329.206 191.267C326.095 190.064 319.88 190.756 318.143 192.499C317.445 193.198 316.498 196.77 316.04 200.436C314.646 211.564 313.959 211.63 304.183 201.57C294.419 191.521 290.206 189.421 284.618 191.816ZM181.932 205.04C181.932 206.114 180.241 206.317 173.087 206.101C162.791 205.79 161.211 204.19 170.518 203.501C178.55 202.905 181.932 203.362 181.932 205.04ZM126.59 204.667C126.83 205.309 126.262 208.539 125.328 211.845C123.248 219.202 121.892 219.856 110.66 218.919C103.713 218.338 102.828 218.056 102.828 216.428C102.828 213.714 104.82 206.011 105.868 204.667C107.147 203.029 125.976 203.029 126.59 204.667ZM258.817 204.844C259.69 207.124 257.302 216.506 255.619 217.408C254.76 217.869 249.764 218.186 244.518 218.112C235.352 217.984 234.979 217.9 234.979 215.928C234.979 214.8 235.35 213.645 235.804 213.364C236.258 213.083 236.897 211.421 237.225 209.671C238.179 204.571 239.796 203.91 251.992 203.641C256.721 203.536 258.432 203.838 258.817 204.844ZM357.172 223.416C357.435 224.103 357.277 225.259 356.821 225.982C356.216 226.938 355.986 226.598 355.976 224.73C355.961 221.944 356.417 221.442 357.172 223.416ZM183.096 238.989C181.944 239.454 181.002 240.498 181.002 241.31C181.002 243.73 183.739 248.293 185.19 248.293C186.76 248.293 189.378 243.655 189.378 240.874C189.378 239.822 188.993 238.961 188.523 238.961C188.053 238.961 187.111 238.777 186.429 238.553C185.747 238.329 184.248 238.525 183.096 238.989ZM245.914 239.036C242.725 240.899 244.817 247.482 248.94 248.564C253.661 249.802 254.809 240.667 250.156 238.893C247.482 237.874 247.93 237.859 245.914 239.036ZM144.738 241.687C143.237 245.319 143.815 247.763 146.259 248.113C148.492 248.434 152.152 245.074 152.152 242.704C152.152 238.369 146.432 237.584 144.738 241.687ZM164.064 241.331C162.625 244.499 164.079 248.76 166.599 248.76C167.94 248.76 168.664 247.84 169.275 245.363C169.735 243.496 169.854 241.29 169.537 240.464C168.638 238.115 165.284 238.647 164.064 241.331ZM201.433 241.407C199.798 245.72 202.211 247.664 210.31 248.555C211.738 248.713 212.361 247.966 213.021 245.307C214.187 240.619 212.905 239.307 207.036 239.173C202.811 239.076 202.229 239.309 201.433 241.407ZM225.107 241.363C224.154 245.172 226.123 248.473 229.137 248.121C231.168 247.883 231.78 247.21 232.3 244.643C233.205 240.169 232.472 238.961 228.848 238.961C226.25 238.961 225.604 239.377 225.107 241.363ZM266.311 239.584C265.969 239.925 265.69 241.386 265.69 242.828C265.69 245.758 269.11 248.664 271.926 248.129C273.935 247.747 274.634 243.635 273.159 240.873C272.166 239.011 267.717 238.173 266.311 239.584ZM94.2987 241.456C92.348 241.974 91.5877 243.865 92.6421 245.578C93.2898 246.631 97.622 246.955 114.345 247.203C138.167 247.557 142.086 246.732 137.661 242.294C136.414 241.044 133.221 240.843 116.024 240.936C104.927 240.996 95.1511 241.229 94.2987 241.456ZM285.775 242.056C284.854 242.731 284.256 244.096 284.446 245.088C284.774 246.795 285.874 246.908 304.789 247.166C327.632 247.477 330.835 247.155 330.835 244.551C330.835 243.566 330.025 242.325 329.035 241.793C326.216 240.281 287.879 240.513 285.775 242.056ZM276.359 255.813C276.014 256.373 274.603 256.548 273.101 256.217C271.644 255.896 269.617 256.082 268.597 256.63C267.393 257.276 265.945 257.321 264.468 256.758C262.825 256.132 261.65 256.272 260.236 257.265C258.786 258.283 257.809 258.39 256.476 257.674C254.491 256.609 252.577 256.544 227.534 256.691C218.065 256.747 209.898 256.752 209.386 256.704C208.875 256.655 205.373 256.503 201.607 256.367C196.002 256.162 194.343 256.444 192.475 257.918C190.211 259.703 190.177 259.702 188.353 257.739C186.459 255.7 184.268 255.166 183.423 256.538C182.863 257.446 160.349 257.166 156.56 256.203C154.999 255.807 153.462 255.989 152.646 256.667C151.907 257.282 150.825 257.489 150.24 257.127C148.4 255.986 138.806 255.794 137.51 256.872C136.611 257.62 135.654 257.615 133.988 256.854C130.808 255.401 129.159 256.302 127.877 260.196C126.943 263.035 127.002 263.699 128.279 264.635C130.025 265.915 205.116 266.295 207.151 265.033C207.814 264.623 209.013 264.64 209.816 265.071C211.467 265.957 223.178 266.388 241.028 266.219C250.979 266.125 264.05 266.412 271.274 266.885C272.042 266.935 275.021 266.714 277.894 266.395C281.947 265.944 283.654 266.166 285.509 267.385C288.511 269.356 290.993 268.237 292.681 264.15C294.958 258.641 290.924 254.757 284.305 256.085C282.808 256.384 281.333 256.224 281.027 255.728C280.282 254.519 277.121 254.577 276.359 255.813ZM85.693 273.778C82.8778 275.845 84.459 277.596 90.8525 279.494C94.1125 280.461 100.213 282.393 104.409 283.785L112.04 286.318L127.21 301.618C147.866 322.452 166.871 337.43 191.239 352.082C206.061 360.995 208.721 361.991 213.274 360.341C221.019 357.533 248.758 339.248 265.225 326.096C270.855 321.599 282.804 310.663 291.778 301.794L308.093 285.669L317.37 282.926C322.472 281.418 328.489 279.827 330.74 279.392C335.092 278.549 337.088 276.584 336.131 274.082C335.61 272.722 332.881 272.555 311.192 272.555H286.838L274.17 284.949C257.672 301.09 242.895 313.372 229.395 322.164C210.797 334.276 210.484 334.441 207.921 333.471C205.104 332.405 182.309 317.251 174.022 310.936C161.501 301.394 153.488 294.228 143.789 283.897L133.578 273.022L110.525 272.746C91.8967 272.523 87.1309 272.721 85.693 273.778ZM208.278 275.959C207.668 276.205 206.482 278.484 205.641 281.022C203.869 286.373 202.275 287.486 196.389 287.486C189.294 287.486 189.64 291.278 197.084 295.086C200.115 296.636 200.623 297.291 200.105 298.983C196.882 309.51 197.085 311.277 201.344 309.789C202.852 309.262 204.821 308.017 205.718 307.023C207.892 304.614 210.009 304.746 214.128 307.549C220.322 311.764 223.228 310.089 220.612 303.812C218.482 298.698 218.79 297.198 222.44 294.937C224.245 293.818 226.369 292.254 227.16 291.461C229.424 289.19 226.733 287.261 220.584 286.75C214.885 286.276 214.659 286.088 212.644 280.101C211.249 275.958 210.361 275.116 208.278 275.959Z" fill="black"/>
</svg>
